<svg xmlns="http://www.w3.org/2000/svg" width="1433" height="96" viewBox="0 0 1433 96" role="img" aria-label="Usage (Network Traffic Monitor)">
  <title>Usage (Network Traffic Monitor)</title>
  <defs>
    <linearGradient id="g" x1="0" y1="0" x2="1" y2="1">
      <stop offset="0%" stop-color="#00FFCC"/>
      <stop offset="55%" stop-color="#1FB6FF"/>
      <stop offset="100%" stop-color="#8A2BE2"/>
    </linearGradient>
    <filter id="glow" x="-30%" y="-30%" width="160%" height="160%">
      <feGaussianBlur stdDeviation="3" result="b"/>
      <feMerge><feMergeNode in="b"/><feMergeNode in="SourceGraphic"/></feMerge>
    </filter>
  </defs>
  <g fill="url(#g)" filter="url(#glow)">
    <path d="M174 0 Q141 0 113 16 Q86 32 70 59 Q54 87 54 120 L54 720 L135 720 L135 120 Q135 104 146 92 Q158 81 174 81 L654 81 Q670 81 681 92 Q693 104 693 120 L693 720 L774 720 L774 120 Q774 87 758 59 Q742 32 714 16 Q687 0 654 0 L174 0 L174 0 Z" transform="translate(36.00,70.0) scale(0.05104,-0.05104)"/>
    <path d="M171 0 Q138 0 110 16 Q83 32 67 59 Q51 87 51 120 L51 148 L132 148 L132 120 Q132 104 143 92 Q155 81 171 81 L651 81 Q667 81 678 92 Q690 104 690 120 L690 281 Q690 297 678 308 Q667 319 651 319 L171 319 Q138 319 110 335 Q83 352 67 379 Q51 406 51 439 L51 600 Q51 633 67 660 Q83 688 110 704 Q138 720 171 720 L651 720 Q684 720 711 704 Q739 688 755 660 Q771 633 771 600 L771 572 L690 572 L690 600 Q690 616 678 627 Q667 639 651 639 L171 639 Q155 639 143 627 Q132 616 132 600 L132 439 Q132 423 143 412 Q155 401 171 401 L651 401 Q684 401 711 384 Q739 368 755 341 Q771 314 771 281 L771 120 Q771 87 755 59 Q739 32 711 16 Q684 0 651 0 L171 0 Z" transform="translate(86.26,70.0) scale(0.05104,-0.05104)"/>
    <path d="M58 0 L58 600 Q58 633 74 660 Q90 688 117 704 Q145 720 178 720 L658 720 Q691 720 718 704 Q746 688 762 660 Q778 633 778 600 L778 0 L697 0 L697 263 L139 263 L139 0 L58 0 L58 0 M139 344 L697 344 L697 600 Q697 616 685 627 Q674 639 658 639 L178 639 Q162 639 150 627 Q139 616 139 600 L139 344 L139 344 Z" transform="translate(136.21,70.0) scale(0.05104,-0.05104)"/>
    <path d="M176 0 Q143 0 115 16 Q88 32 72 59 Q56 87 56 120 L56 600 Q56 633 72 660 Q88 688 115 704 Q143 720 176 720 L656 720 Q689 720 716 704 Q744 688 760 660 Q776 633 776 600 L776 571 L695 571 L695 600 Q695 616 683 627 Q672 639 656 639 L176 639 Q160 639 148 627 Q137 616 137 600 L137 120 Q137 104 148 92 Q160 81 176 81 L656 81 Q672 81 683 92 Q695 104 695 120 L695 298 L517 298 L517 380 L776 380 L776 120 Q776 87 760 59 Q744 32 716 16 Q689 0 656 0 L176 0 Z" transform="translate(186.88,70.0) scale(0.05104,-0.05104)"/>
    <path d="M58 0 L58 720 L715 720 L715 639 L139 639 L139 401 L602 401 L602 319 L139 319 L139 81 L715 81 L715 0 L58 0 Z" transform="translate(237.24,70.0) scale(0.05104,-0.05104)"/>
    <path d="M173 0 Q140 0 112 16 Q85 33 68 60 Q52 88 52 121 L52 598 Q52 632 68 659 Q85 687 112 703 Q140 720 173 720 L202 720 L202 637 L173 637 Q157 637 145 625 Q134 614 134 598 L134 121 Q134 105 145 93 Q157 82 173 82 L202 82 L202 0 L173 0 L173 0 Z" transform="translate(313.13,70.0) scale(0.05104,-0.05104)"/>
    <path d="M56 0 L56 720 L167 720 L695 92 L695 720 L776 720 L776 0 L665 0 L137 628 L137 0 L56 0 Z" transform="translate(335.27,70.0) scale(0.05104,-0.05104)"/>
    <path d="M58 0 L58 720 L715 720 L715 639 L139 639 L139 401 L602 401 L602 319 L139 319 L139 81 L715 81 L715 0 L58 0 Z" transform="translate(385.73,70.0) scale(0.05104,-0.05104)"/>
    <path d="M340 0 L340 0 L340 639 L20 639 L20 720 L740 720 L740 639 L421 639 L421 0 L340 0 Z" transform="translate(432.83,70.0) scale(0.05104,-0.05104)"/>
    <path d="M297 0 L297 0 L35 720 L121 720 L332 142 L542 720 L640 720 L851 142 L1060 720 L1148 720 L886 0 L815 0 L591 615 L367 0 L297 0 Z" transform="translate(479.56,70.0) scale(0.05104,-0.05104)"/>
    <path d="M174 0 Q141 0 113 16 Q86 32 70 59 Q54 87 54 120 L54 600 Q54 633 70 660 Q86 688 113 704 Q141 720 174 720 L654 720 Q687 720 714 704 Q742 688 758 660 Q774 633 774 600 L774 120 Q774 87 758 59 Q742 32 714 16 Q687 0 654 0 L174 0 M174 81 L654 81 Q670 81 681 92 Q693 104 693 120 L693 600 Q693 616 681 627 Q670 639 654 639 L174 639 Q158 639 146 627 Q135 616 135 600 L135 120 Q135 104 146 92 Q158 81 174 81 Z" transform="translate(547.73,70.0) scale(0.05104,-0.05104)"/>
    <path d="M664 0 L429 280 L535 280 L771 1 L771 0 L664 0 M56 0 L56 719 L656 719 Q689 719 716 702 Q744 686 760 659 Q776 632 776 599 L776 388 Q776 355 760 328 Q744 301 716 284 Q689 268 656 268 L137 268 L137 0 L56 0 M176 350 L656 350 Q672 350 683 361 Q695 372 695 388 L695 599 Q695 615 683 626 Q672 638 656 638 L176 638 Q160 638 148 626 Q137 615 137 599 L137 388 Q137 372 148 361 Q160 350 176 350 Z" transform="translate(597.99,70.0) scale(0.05104,-0.05104)"/>
    <path d="M57 0 L57 720 L139 720 L139 401 L371 401 L639 720 L743 720 L743 719 L442 360 L744 1 L744 0 L639 0 L371 319 L139 319 L139 0 L57 0 Z" transform="translate(648.10,70.0) scale(0.05104,-0.05104)"/>
    <path d="M340 0 L340 0 L340 639 L20 639 L20 720 L740 720 L740 639 L421 639 L421 0 L340 0 Z" transform="translate(725.57,70.0) scale(0.05104,-0.05104)"/>
    <path d="M664 0 L429 280 L535 280 L771 1 L771 0 L664 0 M56 0 L56 719 L656 719 Q689 719 716 702 Q744 686 760 659 Q776 632 776 599 L776 388 Q776 355 760 328 Q744 301 716 284 Q689 268 656 268 L137 268 L137 0 L56 0 M176 350 L656 350 Q672 350 683 361 Q695 372 695 388 L695 599 Q695 615 683 626 Q672 638 656 638 L176 638 Q160 638 148 626 Q137 615 137 599 L137 388 Q137 372 148 361 Q160 350 176 350 Z" transform="translate(772.31,70.0) scale(0.05104,-0.05104)"/>
    <path d="M58 0 L58 600 Q58 633 74 660 Q90 688 117 704 Q145 720 178 720 L658 720 Q691 720 718 704 Q746 688 762 660 Q778 633 778 600 L778 0 L697 0 L697 263 L139 263 L139 0 L58 0 L58 0 M139 344 L697 344 L697 600 Q697 616 685 627 Q674 639 658 639 L178 639 Q162 639 150 627 Q139 616 139 600 L139 344 L139 344 Z" transform="translate(822.42,70.0) scale(0.05104,-0.05104)"/>
    <path d="M58 0 L58 720 L715 720 L715 639 L139 639 L139 401 L602 401 L602 319 L139 319 L139 0 L58 0 Z" transform="translate(873.08,70.0) scale(0.05104,-0.05104)"/>
    <path d="M58 0 L58 720 L715 720 L715 639 L139 639 L139 401 L602 401 L602 319 L139 319 L139 0 L58 0 Z" transform="translate(917.98,70.0) scale(0.05104,-0.05104)"/>
    <path d="M66 0 L66 720 L148 720 L148 0 L66 0 Z" transform="translate(962.88,70.0) scale(0.05104,-0.05104)"/>
    <path d="M176 0 Q143 0 115 16 Q88 32 72 59 Q56 87 56 120 L56 600 Q56 633 72 660 Q88 688 115 704 Q143 720 176 720 L774 720 L774 639 L176 639 Q160 639 148 627 Q137 616 137 600 L137 120 Q137 104 148 92 Q160 81 176 81 L774 81 L774 0 L176 0 Z" transform="translate(981.80,70.0) scale(0.05104,-0.05104)"/>
    <path d="M56 0 L56 720 L167 720 L466 364 L765 720 L876 720 L876 0 L795 0 L795 628 L466 237 L137 628 L137 0 L56 0 Z" transform="translate(1060.56,70.0) scale(0.05104,-0.05104)"/>
    <path d="M174 0 Q141 0 113 16 Q86 32 70 59 Q54 87 54 120 L54 600 Q54 633 70 660 Q86 688 113 704 Q141 720 174 720 L654 720 Q687 720 714 704 Q742 688 758 660 Q774 633 774 600 L774 120 Q774 87 758 59 Q742 32 714 16 Q687 0 654 0 L174 0 M174 81 L654 81 Q670 81 681 92 Q693 104 693 120 L693 600 Q693 616 681 627 Q670 639 654 639 L174 639 Q158 639 146 627 Q135 616 135 600 L135 120 Q135 104 146 92 Q158 81 174 81 Z" transform="translate(1115.92,70.0) scale(0.05104,-0.05104)"/>
    <path d="M56 0 L56 720 L167 720 L695 92 L695 720 L776 720 L776 0 L665 0 L137 628 L137 0 L56 0 Z" transform="translate(1166.18,70.0) scale(0.05104,-0.05104)"/>
    <path d="M66 0 L66 720 L148 720 L148 0 L66 0 Z" transform="translate(1216.64,70.0) scale(0.05104,-0.05104)"/>
    <path d="M340 0 L340 0 L340 639 L20 639 L20 720 L740 720 L740 639 L421 639 L421 0 L340 0 Z" transform="translate(1235.56,70.0) scale(0.05104,-0.05104)"/>
    <path d="M174 0 Q141 0 113 16 Q86 32 70 59 Q54 87 54 120 L54 600 Q54 633 70 660 Q86 688 113 704 Q141 720 174 720 L654 720 Q687 720 714 704 Q742 688 758 660 Q774 633 774 600 L774 120 Q774 87 758 59 Q742 32 714 16 Q687 0 654 0 L174 0 M174 81 L654 81 Q670 81 681 92 Q693 104 693 120 L693 600 Q693 616 681 627 Q670 639 654 639 L174 639 Q158 639 146 627 Q135 616 135 600 L135 120 Q135 104 146 92 Q158 81 174 81 Z" transform="translate(1282.30,70.0) scale(0.05104,-0.05104)"/>
    <path d="M664 0 L429 280 L535 280 L771 1 L771 0 L664 0 M56 0 L56 719 L656 719 Q689 719 716 702 Q744 686 760 659 Q776 632 776 599 L776 388 Q776 355 760 328 Q744 301 716 284 Q689 268 656 268 L137 268 L137 0 L56 0 M176 350 L656 350 Q672 350 683 361 Q695 372 695 388 L695 599 Q695 615 683 626 Q672 638 656 638 L176 638 Q160 638 148 626 Q137 615 137 599 L137 388 Q137 372 148 361 Q160 350 176 350 Z" transform="translate(1332.56,70.0) scale(0.05104,-0.05104)"/>
    <path d="M56 0 L56 0 L56 82 L84 82 Q100 82 111 93 Q123 105 123 121 L123 598 Q123 614 111 625 Q100 637 84 637 L56 637 L56 720 L84 720 Q117 720 145 703 Q173 687 189 659 Q206 632 206 598 L206 121 Q206 88 189 60 Q173 33 145 16 Q117 0 84 0 L56 0 Z" transform="translate(1382.66,70.0) scale(0.05104,-0.05104)"/>
  </g>
</svg>
